# xmcd CD database file
#
# Track frame offsets:
#	150
#	23280
#	43182
#	53740
#	87275
#	105985
#	140807
#	191160
#	203942
#	227537
#	239980
#	252559
#	265140
#
# Disc length: 3749 seconds
#
# Revision: 0
# Processed by: cddbd v1.5.1PL0 Copyright (c) Steve Scherf et al.
# Submitted via: CDex 1.51
#
DISCID=b80ea30d
DTITLE=Various Artist - Jazz And Blues
DYEAR=1900
DGENRE=Jazz
TTITLE0=Very Airy
TTITLE1=When The Saints Go Marchin' In
TTITLE2=That Old Black Magic
TTITLE3=Flight To Jordan
TTITLE4=Second Genesis
TTITLE5=Ruby My Dear
TTITLE6=Mr P.C.
TTITLE7=Out Of Now here
TTITLE8=23 Hours Too Long
TTITLE9=Mean Mistreatin' Marna
TTITLE10=Just You And Me Darling
TTITLE11=Sonny's Slow Walk
TTITLE12=C'est Si Bon
EXTD=
EXTT0=
EXTT1=
EXTT2=
EXTT3=
EXTT4=
EXTT5=
EXTT6=
EXTT7=
EXTT8=
EXTT9=
EXTT10=
EXTT11=
EXTT12=
PLAYORDER=
